<?xml version="1.0" encoding="iso-8859-1"?>
<!-- Generator: Adobe Illustrator 19.0.0, SVG Export Plug-In . SVG Version: 6.00 Build 0)  -->
<svg version="1.1" id="Capa_1" xmlns="http://www.w3.org/2000/svg" xmlns:xlink="http://www.w3.org/1999/xlink" x="0px" y="0px"
	 viewBox="0 0 480 480" style="enable-background:new 0 0 480 480;" xml:space="preserve">
<rect x="32" y="48" style="fill:#896045;" width="416" height="384"/>
<g>
	<rect y="432" style="fill:#493325;" width="480" height="48"/>
	<rect x="64" y="192" style="fill:#493325;" width="48" height="48"/>
	<rect x="368" y="192" style="fill:#493325;" width="48" height="48"/>
	<rect x="32" y="240" style="fill:#493325;" width="48" height="48"/>
	<rect x="400" y="240" style="fill:#493325;" width="48" height="48"/>
	<rect x="32" y="328" style="fill:#493325;" width="48" height="48"/>
	<rect x="400" y="328" style="fill:#493325;" width="48" height="48"/>
	<rect x="64" y="288" style="fill:#493325;" width="48" height="48"/>
	<rect x="368" y="288" style="fill:#493325;" width="48" height="48"/>
	<rect x="32" y="384" style="fill:#493325;" width="48" height="48"/>
	<rect x="400" y="384" style="fill:#493325;" width="48" height="48"/>
	<rect x="352" y="96" style="fill:#493325;" width="64" height="48"/>
	<rect x="64" y="96" style="fill:#493325;" width="64" height="48"/>
	<rect x="88" y="48" style="fill:#493325;" width="96" height="48"/>
	<rect x="184" y="96" style="fill:#493325;" width="96" height="48"/>
	<rect x="280" y="48" style="fill:#493325;" width="96" height="48"/>
	<rect x="88" y="144" style="fill:#493325;" width="96" height="48"/>
	<rect x="280" y="144" style="fill:#493325;" width="96" height="48"/>
	<rect style="fill:#493325;" width="480" height="48"/>
</g>
<g>
	<rect x="24" style="fill:#AF7B58;" width="16" height="24"/>
	<rect x="56" style="fill:#AF7B58;" width="16" height="24"/>
	<rect x="88" style="fill:#AF7B58;" width="16" height="24"/>
	<rect x="120" style="fill:#AF7B58;" width="16" height="24"/>
	<rect x="152" style="fill:#AF7B58;" width="16" height="24"/>
	<rect x="184" style="fill:#AF7B58;" width="16" height="24"/>
	<rect x="216" style="fill:#AF7B58;" width="16" height="24"/>
	<rect x="248" style="fill:#AF7B58;" width="16" height="24"/>
	<rect x="280" style="fill:#AF7B58;" width="16" height="24"/>
	<rect x="312" style="fill:#AF7B58;" width="16" height="24"/>
	<rect x="344" style="fill:#AF7B58;" width="16" height="24"/>
	<rect x="376" style="fill:#AF7B58;" width="16" height="24"/>
	<rect x="408" style="fill:#AF7B58;" width="16" height="24"/>
	<rect x="440" style="fill:#AF7B58;" width="16" height="24"/>
	<rect x="32" y="376" style="fill:#AF7B58;" width="80" height="16"/>
	<rect x="32" y="328" style="fill:#AF7B58;" width="80" height="16"/>
	<rect x="32" y="280" style="fill:#AF7B58;" width="88" height="16"/>
	<rect x="32" y="232" style="fill:#AF7B58;" width="104" height="16"/>
	<rect x="368" y="376" style="fill:#AF7B58;" width="80" height="16"/>
	<rect x="368" y="328" style="fill:#AF7B58;" width="80" height="16"/>
	<rect x="360" y="280" style="fill:#AF7B58;" width="88" height="16"/>
	<rect x="344" y="232" style="fill:#AF7B58;" width="104" height="16"/>
	<rect x="32" y="184" style="fill:#AF7B58;" width="416" height="16"/>
	<rect x="32" y="136" style="fill:#AF7B58;" width="416" height="16"/>
	<rect x="32" y="88" style="fill:#AF7B58;" width="416" height="16"/>
</g>
<path style="fill:#493325;" d="M240,176L240,176c70.4,0,128,57.6,128,128v128l0,0H112l0,0V304C112,233.6,169.6,176,240,176z"/>
<path style="fill:#D75352;" d="M336,432v-2.4c0-40-12.8-79.2-36-112l-4-5.6l-24,32l-32-96l-32,96l-24-32l-4,5.6
	c-23.2,32.8-36,71.2-36,112v2.4H336z"/>
<path style="fill:#E37B40;" d="M304,432v-13.6c0-17.6-4.8-34.4-14.4-48.8L288,368l-24,16l-24-48l-24,48l-24-16l-1.6,1.6
	c-9.6,14.4-14.4,32-14.4,48.8V432H304z"/>
<g>
</g>
<g>
</g>
<g>
</g>
<g>
</g>
<g>
</g>
<g>
</g>
<g>
</g>
<g>
</g>
<g>
</g>
<g>
</g>
<g>
</g>
<g>
</g>
<g>
</g>
<g>
</g>
<g>
</g>
</svg>
